Coordinates
version=1
nRows=21
nColumns=12
inDegrees=yes

Units are S.I. units (second, meters, Newtons, ...)
Angles are in degrees

endheader
time	SC_y	SC_z	SC_x	AC_y	AC_z	AC_x	GH_y	GH_z	GH_yy	EL_x	PS_y
       0.0              -35.92          2.766          33.61          33.81         -11.73         -13.12          97.95          34.88         -151.2          46.94          97.07
   0.01026              -35.92          2.767          33.62          33.81         -11.73         -13.12          97.92          34.89         -151.2          46.94          97.06
   0.02051              -35.92          2.769          33.62          33.82         -11.73         -13.11           97.9          34.89         -151.2          46.93          97.05
   0.03077              -35.92          2.771          33.63          33.82         -11.73         -13.11          97.87          34.89         -151.2          46.93          97.04
   0.04102              -35.92          2.773          33.63          33.83         -11.73         -13.11          97.85          34.89         -151.2          46.92          97.03
   0.05128              -35.92          2.775          33.64          33.83         -11.73          -13.1          97.82          34.89         -151.2          46.92          97.02
   0.06154              -35.92          2.777          33.65          33.84         -11.73          -13.1          97.79          34.89         -151.2          46.91          97.01
   0.07179              -35.93           2.78          33.66          33.84         -11.73         -13.09          97.75           34.9         -151.2          46.91           97.0
   0.08205              -35.93          2.782          33.66          33.85         -11.73         -13.09          97.72           34.9         -151.2           46.9          96.99
    0.0923              -35.93          2.785          33.67          33.86         -11.72         -13.08          97.68           34.9         -151.2          46.89          96.97
    0.1026              -35.93          2.788          33.68          33.86         -11.72         -13.08          97.64           34.9         -151.1          46.89          96.96
    0.1128              -35.93          2.791          33.69          33.87         -11.72         -13.07          97.59          34.91         -151.1          46.88          96.94
    0.1231              -35.94          2.795           33.7          33.88         -11.72         -13.06          97.55          34.91         -151.1          46.87          96.92
    0.1333              -35.94          2.798          33.72          33.89         -11.72         -13.06           97.5          34.91         -151.1          46.86          96.91
    0.1436              -35.94          2.802          33.73           33.9         -11.72         -13.05          97.44          34.92         -151.1          46.85          96.89
    0.1538              -35.94          2.807          33.74          33.91         -11.72         -13.04          97.38          34.92         -151.1          46.84          96.86
    0.1641              -35.95          2.812          33.76          33.93         -11.72         -13.03          97.31          34.92         -151.1          46.83          96.84
    0.1744              -35.95          2.817          33.78          33.94         -11.72         -13.02          97.24          34.93         -151.0          46.82          96.81
    0.1846              -35.95          2.822           33.8          33.95         -11.72         -13.01          97.17          34.93         -151.0           46.8          96.79
    0.1949              -35.96          2.829          33.82          33.97         -11.72          -13.0          97.08          34.94         -151.0          46.79          96.76
    0.2051              -35.96          2.835          33.84          33.99         -11.72         -12.99          96.99          34.94         -151.0          46.77          96.72
